<svg xmlns="http://www.w3.org/2000/svg" width="116.119" height="137.46" viewBox="0 0 116.119 137.46">
  <g id="objects___cactus_pot_potted_plant_nature_decor" data-name="objects _ cactus, pot, potted plant, nature, decor" transform="translate(2 2)">
    <g id="Group" transform="translate(0 0)">
      <path id="Path" d="M0,.49H112.119" transform="translate(0 132.97)" fill="none" stroke="#1e2454" stroke-linecap="round" stroke-miterlimit="10" stroke-width="4"/>
      <path id="Path-2" data-name="Path" d="M22.246,24.687H8.324A8.338,8.338,0,0,1,0,16.333V5.865A5.866,5.866,0,0,1,6.23.012a6,6,0,0,1,5.449,6.053v5.33a1.564,1.564,0,0,0,1.561,1.567h9.006" transform="translate(11.946 64.428)" fill="#57aa91"/>
      <path id="Path-3" data-name="Path" d="M0,5.865A5.866,5.866,0,0,1,6.23.012a6,6,0,0,1,5.449,6.053v5.33a1.564,1.564,0,0,0,1.561,1.567h9.006" transform="translate(11.946 64.428)" fill="none" stroke="#1e2454" stroke-linecap="round" stroke-miterlimit="10" stroke-width="4"/>
      <path id="Path-4" data-name="Path" d="M22.246,11.726H8.324A8.3,8.3,0,0,1,2.438,9.28,8.372,8.372,0,0,1,0,3.372V0" transform="translate(11.946 77.389)" fill="none" stroke="#1e2454" stroke-linecap="round" stroke-miterlimit="10" stroke-width="4"/>
      <path id="Path-5" data-name="Path" d="M28.107,0h0A28.164,28.164,0,0,1,56.215,28.221V98.749H0V28.221A28.164,28.164,0,0,1,28.107,0Z" transform="translate(27.952 0)" fill="#57aa91"/>
      <path id="Path-6" data-name="Path" d="M.49,52.129V0" transform="translate(27.462 28.221)" fill="none" stroke="#1e2454" stroke-linecap="round" stroke-miterlimit="10" stroke-width="4"/>
      <path id="Path-7" data-name="Path" d="M5.443,11.529A28.024,28.024,0,0,1,28.107,0h0A28.164,28.164,0,0,1,56.215,28.221V98.749H0V88.286" transform="translate(27.952 0)" fill="none" stroke="#1e2454" stroke-linecap="round" stroke-miterlimit="10" stroke-width="4"/>
      <path id="Path-8" data-name="Path" d="M16.73,34.711H71.5A44.272,44.272,0,0,0,88.228,0H0A44.272,44.272,0,0,0,16.73,34.711Z" transform="translate(11.946 98.749)" fill="#b5c3c9"/>
      <path id="Path-9" data-name="Path" d="M3.929,0H0A44.272,44.272,0,0,0,16.73,34.711H71.5A44.272,44.272,0,0,0,88.228,0H13.079" transform="translate(11.946 98.749)" fill="none" stroke="#1e2454" stroke-linecap="round" stroke-miterlimit="10" stroke-width="4"/>
      <rect id="Rectangle" width="2.875" height="2.875" transform="translate(46.122 7.434) rotate(-45)" fill="#68c1a3"/>
      <rect id="Rectangle-2" data-name="Rectangle" width="2.875" height="2.875" transform="translate(54.032 7.434) rotate(-45)" fill="#68c1a3"/>
      <rect id="Rectangle-3" data-name="Rectangle" width="2.875" height="2.875" transform="translate(61.942 7.432) rotate(-45)" fill="#68c1a3"/>
      <rect id="Rectangle-4" data-name="Rectangle" width="2.875" height="2.875" transform="translate(34.255 15.373) rotate(-45)" fill="#68c1a3"/>
      <rect id="Rectangle-5" data-name="Rectangle" width="2.875" height="2.875" transform="translate(42.165 15.374) rotate(-45)" fill="#68c1a3"/>
      <rect id="Rectangle-6" data-name="Rectangle" width="2.875" height="2.875" transform="translate(50.076 15.375) rotate(-45)" fill="#68c1a3"/>
      <rect id="Rectangle-7" data-name="Rectangle" width="2.875" height="2.875" transform="translate(57.985 15.373) rotate(-45)" fill="#68c1a3"/>
      <rect id="Rectangle-8" data-name="Rectangle" width="2.875" height="2.875" transform="translate(65.895 15.374) rotate(-45)" fill="#68c1a3"/>
      <rect id="Rectangle-9" data-name="Rectangle" width="2.875" height="2.875" transform="translate(73.806 15.374) rotate(-45)" fill="#68c1a3"/>
      <rect id="Rectangle-10" data-name="Rectangle" width="2.875" height="2.875" transform="translate(30.302 23.317) rotate(-45)" fill="#68c1a3"/>
      <rect id="Rectangle-11" data-name="Rectangle" width="2.875" height="2.875" transform="translate(38.213 23.317) rotate(-45)" fill="#68c1a3"/>
      <rect id="Rectangle-12" data-name="Rectangle" width="2.875" height="2.875" transform="translate(46.123 23.315) rotate(-45)" fill="#68c1a3"/>
      <rect id="Rectangle-13" data-name="Rectangle" width="2.875" height="2.875" transform="translate(54.031 23.316) rotate(-45)" fill="#68c1a3"/>
      <rect id="Rectangle-14" data-name="Rectangle" width="2.875" height="2.875" transform="translate(61.941 23.317) rotate(-45)" fill="#68c1a3"/>
      <rect id="Rectangle-15" data-name="Rectangle" width="2.875" height="2.875" transform="translate(69.851 23.317) rotate(-45)" fill="#68c1a3"/>
      <rect id="Rectangle-16" data-name="Rectangle" width="2.875" height="2.875" transform="translate(77.761 23.315) rotate(-45)" fill="#68c1a3"/>
      <rect id="Rectangle-17" data-name="Rectangle" width="2.875" height="2.875" transform="translate(34.259 31.26) rotate(-45)" fill="#68c1a3"/>
      <rect id="Rectangle-18" data-name="Rectangle" width="2.875" height="2.875" transform="translate(42.168 31.258) rotate(-45)" fill="#68c1a3"/>
      <rect id="Rectangle-19" data-name="Rectangle" width="2.875" height="2.875" transform="translate(50.076 31.261) rotate(-45)" fill="#68c1a3"/>
      <rect id="Rectangle-20" data-name="Rectangle" width="2.875" height="2.875" transform="translate(57.986 31.259) rotate(-45)" fill="#68c1a3"/>
      <rect id="Rectangle-21" data-name="Rectangle" width="2.875" height="2.875" transform="translate(65.899 31.258) rotate(-45)" fill="#68c1a3"/>
      <rect id="Rectangle-22" data-name="Rectangle" width="2.875" height="2.875" transform="translate(73.807 31.261) rotate(-45)" fill="#68c1a3"/>
      <rect id="Rectangle-23" data-name="Rectangle" width="2.875" height="2.875" transform="translate(30.304 39.198) rotate(-45)" fill="#68c1a3"/>
      <rect id="Rectangle-24" data-name="Rectangle" width="2.875" height="2.875" transform="translate(38.212 39.199) rotate(-45)" fill="#68c1a3"/>
      <rect id="Rectangle-25" data-name="Rectangle" width="2.875" height="2.875" transform="translate(46.122 39.2) rotate(-45)" fill="#68c1a3"/>
      <rect id="Rectangle-26" data-name="Rectangle" width="2.875" height="2.875" transform="translate(54.029 39.2) rotate(-45)" fill="#68c1a3"/>
      <rect id="Rectangle-27" data-name="Rectangle" width="2.875" height="2.875" transform="translate(61.942 39.198) rotate(-45)" fill="#68c1a3"/>
      <rect id="Rectangle-28" data-name="Rectangle" width="2.875" height="2.875" transform="translate(69.85 39.202) rotate(-45)" fill="#68c1a3"/>
      <rect id="Rectangle-29" data-name="Rectangle" width="2.875" height="2.875" transform="translate(77.76 39.2) rotate(-45)" fill="#68c1a3"/>
      <rect id="Rectangle-30" data-name="Rectangle" width="2.875" height="2.875" transform="translate(34.257 47.144) rotate(-45)" fill="#68c1a3"/>
      <rect id="Rectangle-31" data-name="Rectangle" width="2.875" height="2.875" transform="translate(42.167 47.142) rotate(-45)" fill="#68c1a3"/>
      <rect id="Rectangle-32" data-name="Rectangle" width="2.875" height="2.875" transform="translate(50.078 47.143) rotate(-45)" fill="#68c1a3"/>
      <rect id="Rectangle-33" data-name="Rectangle" width="2.875" height="2.875" transform="translate(57.988 47.141) rotate(-45)" fill="#68c1a3"/>
      <rect id="Rectangle-34" data-name="Rectangle" width="2.875" height="2.875" transform="translate(65.897 47.142) rotate(-45)" fill="#68c1a3"/>
      <rect id="Rectangle-35" data-name="Rectangle" width="2.875" height="2.875" transform="translate(73.805 47.142) rotate(-45)" fill="#68c1a3"/>
      <rect id="Rectangle-36" data-name="Rectangle" width="2.875" height="2.875" transform="translate(30.302 55.083) rotate(-45)" fill="#68c1a3"/>
      <rect id="Rectangle-37" data-name="Rectangle" width="2.875" height="2.875" transform="translate(38.21 55.083) rotate(-45)" fill="#68c1a3"/>
      <rect id="Rectangle-38" data-name="Rectangle" width="2.875" height="2.875" transform="translate(46.123 55.081) rotate(-45)" fill="#68c1a3"/>
      <rect id="Rectangle-39" data-name="Rectangle" width="2.875" height="2.875" transform="translate(54.031 55.084) rotate(-45)" fill="#68c1a3"/>
      <rect id="Rectangle-40" data-name="Rectangle" width="2.875" height="2.875" transform="translate(61.941 55.083) rotate(-45)" fill="#68c1a3"/>
      <rect id="Rectangle-41" data-name="Rectangle" width="2.875" height="2.875" transform="translate(69.849 55.083) rotate(-45)" fill="#68c1a3"/>
      <rect id="Rectangle-42" data-name="Rectangle" width="2.875" height="2.875" transform="translate(77.761 55.081) rotate(-45)" fill="#68c1a3"/>
      <rect id="Rectangle-43" data-name="Rectangle" width="2.875" height="2.875" transform="translate(34.256 63.026) rotate(-45)" fill="#68c1a3"/>
      <rect id="Rectangle-44" data-name="Rectangle" width="2.875" height="2.875" transform="translate(42.168 63.024) rotate(-45)" fill="#68c1a3"/>
      <rect id="Rectangle-45" data-name="Rectangle" width="2.875" height="2.875" transform="translate(50.076 63.027) rotate(-45)" fill="#68c1a3"/>
      <rect id="Rectangle-46" data-name="Rectangle" width="2.875" height="2.875" transform="translate(57.986 63.025) rotate(-45)" fill="#68c1a3"/>
      <rect id="Rectangle-47" data-name="Rectangle" width="2.875" height="2.875" transform="translate(65.896 63.024) rotate(-45)" fill="#68c1a3"/>
      <rect id="Rectangle-48" data-name="Rectangle" width="2.875" height="2.875" transform="translate(73.807 63.027) rotate(-45)" fill="#68c1a3"/>
      <rect id="Rectangle-49" data-name="Rectangle" width="2.875" height="2.875" transform="translate(30.301 70.964) rotate(-45)" fill="#68c1a3"/>
      <rect id="Rectangle-50" data-name="Rectangle" width="2.875" height="2.875" transform="translate(38.212 70.967) rotate(-45)" fill="#68c1a3"/>
      <rect id="Rectangle-51" data-name="Rectangle" width="2.875" height="2.875" transform="translate(46.122 70.966) rotate(-45)" fill="#68c1a3"/>
      <rect id="Rectangle-52" data-name="Rectangle" width="2.875" height="2.875" transform="translate(54.029 70.966) rotate(-45)" fill="#68c1a3"/>
      <rect id="Rectangle-53" data-name="Rectangle" width="2.875" height="2.875" transform="translate(61.942 70.964) rotate(-45)" fill="#68c1a3"/>
      <rect id="Rectangle-54" data-name="Rectangle" width="2.875" height="2.875" transform="translate(69.85 70.967) rotate(-45)" fill="#68c1a3"/>
      <rect id="Rectangle-55" data-name="Rectangle" width="2.875" height="2.875" transform="translate(77.76 70.966) rotate(-45)" fill="#68c1a3"/>
      <rect id="Rectangle-56" data-name="Rectangle" width="2.875" height="2.875" transform="translate(34.257 78.91) rotate(-45)" fill="#68c1a3"/>
      <rect id="Rectangle-57" data-name="Rectangle" width="2.875" height="2.875" transform="translate(42.167 78.908) rotate(-45)" fill="#68c1a3"/>
      <rect id="Rectangle-58" data-name="Rectangle" width="2.875" height="2.875" transform="translate(50.075 78.908) rotate(-45)" fill="#68c1a3"/>
      <rect id="Rectangle-59" data-name="Rectangle" width="2.875" height="2.875" transform="translate(57.988 78.91) rotate(-45)" fill="#68c1a3"/>
      <rect id="Rectangle-60" data-name="Rectangle" width="2.875" height="2.875" transform="translate(65.897 78.908) rotate(-45)" fill="#68c1a3"/>
      <rect id="Rectangle-61" data-name="Rectangle" width="2.875" height="2.875" transform="translate(73.805 78.908) rotate(-45)" fill="#68c1a3"/>
      <rect id="Rectangle-62" data-name="Rectangle" width="2.875" height="2.875" transform="translate(30.305 86.851) rotate(-45)" fill="#68c1a3"/>
      <rect id="Rectangle-63" data-name="Rectangle" width="2.875" height="2.875" transform="translate(38.212 86.851) rotate(-45)" fill="#68c1a3"/>
      <rect id="Rectangle-64" data-name="Rectangle" width="2.875" height="2.875" transform="translate(46.122 86.849) rotate(-45)" fill="#68c1a3"/>
      <rect id="Rectangle-65" data-name="Rectangle" width="2.875" height="2.875" transform="translate(54.033 86.852) rotate(-45)" fill="#68c1a3"/>
      <rect id="Rectangle-66" data-name="Rectangle" width="2.875" height="2.875" transform="translate(61.943 86.851) rotate(-45)" fill="#68c1a3"/>
      <rect id="Rectangle-67" data-name="Rectangle" width="2.875" height="2.875" transform="translate(69.851 86.851) rotate(-45)" fill="#68c1a3"/>
      <rect id="Rectangle-68" data-name="Rectangle" width="2.875" height="2.875" transform="translate(77.76 86.852) rotate(-45)" fill="#68c1a3"/>
      <rect id="Rectangle-69" data-name="Rectangle" width="2.875" height="2.875" transform="translate(34.256 94.791) rotate(-45)" fill="#68c1a3"/>
      <rect id="Rectangle-70" data-name="Rectangle" width="2.875" height="2.875" transform="translate(42.165 94.79) rotate(-45)" fill="#68c1a3"/>
      <rect id="Rectangle-71" data-name="Rectangle" width="2.875" height="2.875" transform="translate(50.076 94.793) rotate(-45)" fill="#68c1a3"/>
      <rect id="Rectangle-72" data-name="Rectangle" width="2.875" height="2.875" transform="translate(57.986 94.791) rotate(-45)" fill="#68c1a3"/>
      <rect id="Rectangle-73" data-name="Rectangle" width="2.875" height="2.875" transform="translate(65.896 94.789) rotate(-45)" fill="#68c1a3"/>
      <rect id="Rectangle-74" data-name="Rectangle" width="2.875" height="2.875" transform="translate(73.807 94.793) rotate(-45)" fill="#68c1a3"/>
      <path id="Path-10" data-name="Path" d="M0,24.687H13.922a8.338,8.338,0,0,0,8.324-8.354V5.865A5.866,5.866,0,0,0,16.015.012a6,6,0,0,0-5.449,6.053v5.33a1.564,1.564,0,0,1-1.561,1.567H0" transform="translate(77.927 47.966)" fill="#57aa91"/>
      <path id="Path-11" data-name="Path" d="M1.888,24.687H12.06a8.338,8.338,0,0,0,8.324-8.354V5.865A5.866,5.866,0,0,0,14.153.012,6,6,0,0,0,8.7,6.065v5.33a1.564,1.564,0,0,1-1.561,1.567H0" transform="translate(79.79 47.966)" fill="none" stroke="#1e2454" stroke-linecap="round" stroke-miterlimit="10" stroke-width="4"/>
    </g>
  </g>
</svg>
