<svg xmlns="http://www.w3.org/2000/svg" width="49.954" height="69.936" viewBox="0 0 49.954 69.936">
  <path id="_53_Trash_essential_Bin_Spam" data-name="53  Trash, essential, Bin, Spam" d="M55.954,11.991H6v5H8.5l2.173,47.806a7.493,7.493,0,0,0,7.493,7.143H43.69a7.493,7.493,0,0,0,7.493-7.143l2.273-47.806h2.5ZM46.188,64.442a2.5,2.5,0,0,1-2.5,2.5H18.264a2.5,2.5,0,0,1-2.5-2.373L13.618,16.986H48.461ZM40.968,7H20.986V2H40.968ZM28.479,51.954h-5V31.972h5Zm9.991,0h-5V31.972h5Z" transform="translate(-6 -2)" fill="#ff7e7e"/>
</svg>
