<svg xmlns="http://www.w3.org/2000/svg" width="497.918" height="700.328" viewBox="0 0 497.918 700.328">
  <g id="character_builder___woman_female_girl_pose_point" data-name="character builder _ woman, female, girl, pose, point" transform="translate(0.5)">
    <g id="Group" transform="translate(-241.294 -155.036)">
      <path id="Path" d="M0,.653H395.855" transform="translate(292.523 853.711)" fill="none" stroke="#1e2454" stroke-linecap="round" stroke-miterlimit="10" stroke-width="2"/>
      <path id="Path-2" data-name="Path" d="M85.992,8.219C85.992,4.207,0,0,0,0L5.985,52.267C56.2,63.582,50.712,21.521,50.712,21.521S86.122,18.672,85.992,8.219Z" transform="translate(652.719 226.524)" fill="#e1eeef"/>
      <path id="Path-3" data-name="Path" d="M220.526,2.911C85.247-8.379,0,16.814,0,16.814L42.571,85.662c57.493-21.547,183.939-30.485,183.939-30.485C239.982,31.265,220.526,2.911,220.526,2.911Z" transform="translate(432.193 223.613)" fill="#c6dd85"/>
      <path id="Path-4" data-name="Path" d="M5.985,52.267C19.456,28.407,0,0,0,0" transform="translate(652.719 226.471)" fill="none" stroke="#1e2454" stroke-linecap="round" stroke-miterlimit="10" stroke-width="1"/>
      <path id="Path-5" data-name="Path" d="M67.716,19.678s-166.613,237.4,22.854,458L68.788,499.565H179.2S77.948,252.6,166.461,155.7,101.638,0,101.638,0" transform="translate(329.968 354.107)" fill="#57aa91"/>
      <ellipse id="Oval" cx="85.587" cy="46.387" rx="85.587" ry="46.387" transform="translate(291.387 473.431)" fill="#1e2454"/>
      <path id="Path-6" data-name="Path" d="M146.107,180.1c52.058-4.691,220.539-11,105.958-180.1L179.414,29.191l.536,4.678a13.851,13.851,0,0,1-13.21,15.379C123.515,51.078,1.08,64.523.009,158.107-1.337,271.813,155.894,339.028,155.894,339.028l12.923,45.158L219.385,274.87S94.062,184.776,146.107,180.1Z" transform="translate(241.333 354.081)" fill="#57aa91"/>
      <path id="Path-7" data-name="Path" d="M102.443,0,68.469,13.642A223.1,223.1,0,0,0,40.65,0L6.677,19.7S4.064,23.35,0,30.158C17.993,37,45.877,41.4,77.211,41.4a293.882,293.882,0,0,0,47.523-3.672A330.1,330.1,0,0,0,102.443,0Z" transform="translate(390.955 354.107)" fill="#1e2454"/>
      <path id="Path-8" data-name="Path" d="M92.46,46.583c-2.078-13.589-21.024-29.6-21.024-29.6S80.582,6.533,46.3,0H11.107L0,36.613S22.775,59.6,48.582,52.084,94.524,60.133,92.46,46.583Z" transform="translate(334.507 439.014)" fill="#e1eeef"/>
      <path id="Path-9" data-name="Path" d="M63.491,20.018S51.927,11.76,37.279,0L22.213,14.373a34.078,34.078,0,0,0-5.619,42.493h0L0,84.306,12.923,129.36Z" transform="translate(397.227 608.907)" fill="#1e2454"/>
      <path id="Path-10" data-name="Path" d="M0,0C.64,3.214,1.307,6.442,2.091,9.682c11.825,50.96,36.743,104.3,81.771,156.722" transform="translate(336.676 665.381)" fill="none" stroke="#1e2454" stroke-linecap="round" stroke-miterlimit="10" stroke-width="1"/>
      <path id="Path-11" data-name="Path" d="M9.058,0C.016,41.4-3.8,89.311,4.9,140.205" transform="translate(329.97 515.519)" fill="none" stroke="#1e2454" stroke-linecap="round" stroke-miterlimit="10" stroke-width="1"/>
      <path id="Path-12" data-name="Path" d="M71.867,61.413S24.369,27.27,0,0" transform="translate(388.851 567.511)" fill="none" stroke="#fff" stroke-linecap="round" stroke-miterlimit="10" stroke-width="1"/>
      <path id="Path-13" data-name="Path" d="M166.739,0C123.514,1.829,1.08,15.275.008,108.858-1.3,222.565,155.933,289.779,155.933,289.779l12.923,45.158" transform="translate(241.294 403.329)" fill="none" stroke="#fff" stroke-linecap="round" stroke-miterlimit="10" stroke-width="1"/>
      <path id="Path-14" data-name="Path" d="M0,109.316,50.568,0" transform="translate(410.15 628.925)" fill="none" stroke="#1e2454" stroke-linecap="round" stroke-miterlimit="10" stroke-width="1"/>
      <path id="Path-15" data-name="Path" d="M66.814,5.58C62.985,9.7,53.486,16.7,36.473,10.572a11.76,11.76,0,0,0-9.068.457C16.429,16.334-8.111,31.7,2.682,59.193c11.028,28.106,21.325,56.056,23.69,74.258A17.235,17.235,0,0,0,39.8,148.177c22.527,4.835,68.639,11.381,97.464-7.592a17.13,17.13,0,0,0,6.429-20.58c-7.592-19.273-21.821-59.963-20.462-90.97C124.79-5.984,86.074-.744,73.033,2a11.917,11.917,0,0,0-6.22,3.58Z" transform="translate(359.16 238.374)" fill="#c6dd85"/>
      <path id="Path-16" data-name="Path" d="M19.182,68.273C13.341,53.456,3.593,25.99,0,0" transform="translate(483.676 290.106)" fill="none" stroke="#fff" stroke-linecap="round" stroke-miterlimit="10" stroke-width="1"/>
      <path id="Path-17" data-name="Path" d="M37.618,50.5h0a7.383,7.383,0,0,1-6.625-3.75A17.6,17.6,0,0,1,28.9,38.246,61.047,61.047,0,0,0,15.365,0L1.214,38.821c-6.167,32.771,12.309,61.165,29.5,64.954a27.44,27.44,0,0,0,6.912.928,27.1,27.1,0,0,0,0-54.2Z" transform="translate(428.679 168.011)" fill="#bc6904"/>
      <path id="Path-18" data-name="Path" d="M1.873.915S-8.24,20.593,18.533,21.246,55.865,7.84,55.865,7.84L57.237,0" transform="translate(381.529 208.544)" fill="#bc6904"/>
      <path id="Path-19" data-name="Path" d="M.745,29.962C-3.933,50.477,14.06,62.2,36.5,59.911c19.6-2,35.75-13.406,35.75-29.949S56.239,0,36.5,0,4.43,13.825.745,29.962Z" transform="translate(378.07 155.036)" fill="#bc6904"/>
      <path id="Path-20" data-name="Path" d="M3.251.072h-.6L1.213,3.992A68.887,68.887,0,0,0,.442,24.65l.287.314.51.47a14.582,14.582,0,0,0,2.012.17,12.805,12.805,0,1,0,0-25.6Z" transform="translate(428.668 202.775)" fill="#1e2454"/>
      <path id="Path-21" data-name="Path" d="M.675,2.2c-1.5,2.274-1.176,8.611,8.18,9.722l1.751-3.267C9.7-.74,3.38-1.8.675,2.2Z" transform="translate(380.871 203.025)" fill="#e1eeef"/>
      <path id="Path-22" data-name="Path" d="M2.36,9.533A5.762,5.762,0,0,1,.662,2.2c2.378-3.58,7.683-3.11,9.46,3.75" transform="translate(380.924 203.023)" fill="none" stroke="#1e2454" stroke-linecap="round" stroke-miterlimit="10" stroke-width="1"/>
      <path id="Path-23" data-name="Path" d="M0,.615a1.307,1.307,0,0,1,.98-.6A1.764,1.764,0,0,1,2.13.263a2.352,2.352,0,0,1,.758.81A2,2,0,0,1,3.123,2.1c-.64-.366-1.058-.758-1.5-1.006A3.136,3.136,0,0,0,0,.615Z" transform="translate(384.487 206.439)" fill="#1e2454"/>
      <path id="Path-24" data-name="Path" d="M.772,36.744A61.23,61.23,0,0,0,.158,18.607S-2.913.052,18.033,0c34.783-.065,30.654,28.93,27.78,39.2a.575.575,0,0,1,0,.131c-.144.483-.274.941-.405,1.307s-.091.261-.078.17A25.924,25.924,0,0,1,18.229,59.1C4.261,58.186-1.149,48.268.772,36.744Z" transform="translate(384.956 177.615)" fill="#e1eeef"/>
      <path id="Path-25" data-name="Path" d="M0,0C34.783-.065,30.654,28.93,27.78,39.2a.575.575,0,0,1,0,.131c-.144.483-.274.941-.405,1.307s-.091.261-.078.17A27.976,27.976,0,0,1,21.9,50.4" transform="translate(402.989 177.615)" fill="none" stroke="#1e2454" stroke-linecap="round" stroke-miterlimit="10" stroke-width="1"/>
      <path id="Path-26" data-name="Path" d="M0,13.3,2.927,25.624l8.911-11.747L1.241,0" transform="translate(427.986 187.899)" fill="#bc6904"/>
      <path id="Path-27" data-name="Path" d="M7.831,24.1C18.062,34.335,41.5,47.99,47.357,42.123s-3.672-21.077-13.9-31.36S10.17-3.022,4.316,2.831-2.4,13.86,7.831,24.1Z" transform="translate(393.198 160.894)" fill="#bc6904"/>
      <path id="Path-28" data-name="Path" d="M24.073,18.853C2.735,26.941,11.006,45.731,5.179,39.877s-8.533-18.894,1.7-29.126S30.149-3.034,36,2.82,37.61,13.731,24.073,18.853Z" transform="translate(375.989 160.957)" fill="#bc6904"/>
      <path id="Path-29" data-name="Path" d="M0,.174A10.362,10.362,0,0,1,7.775,1.833" transform="translate(410.45 196.166)" fill="none" stroke="#1e2454" stroke-linecap="round" stroke-miterlimit="10" stroke-width="1"/>
      <path id="Path-30" data-name="Path" d="M3.2.091A9.918,9.918,0,0,1,4.586,6,16.438,16.438,0,0,1,3.841,8.99a23.677,23.677,0,0,1-1.1,2.849,7.017,7.017,0,0,1-.8,1.307,3.92,3.92,0,0,0-.614,1.085c-.183.653.274,1.307.941,1.869a4.991,4.991,0,0,0,2.313,1.124A3.633,3.633,0,0,0,7.2,16.791a.078.078,0,0,1,.1,0,.091.091,0,0,1,0,.078,3.371,3.371,0,0,1-2.822,1.307A4.965,4.965,0,0,1,1.345,17.1,4.142,4.142,0,0,1,.234,15.8a2.613,2.613,0,0,1-.091-1.934,3.659,3.659,0,0,1,.993-1.4,12.361,12.361,0,0,0,.98-1.045A6.363,6.363,0,0,0,3.423,8.807a10.806,10.806,0,0,0,.065-2.9A56.448,56.448,0,0,0,3.057.078V0Z" transform="translate(397.058 198.6)" fill="#1e2454"/>
      <path id="Path-31" data-name="Path" d="M6.533.431A8.572,8.572,0,0,0,0,1.2" transform="translate(390.693 195.909)" fill="none" stroke="#1e2454" stroke-linecap="round" stroke-miterlimit="10" stroke-width="1"/>
      <circle id="Oval-2" data-name="Oval" cx="2.888" cy="2.888" r="2.888" transform="translate(388.616 210.112)" fill="#f4857f"/>
      <circle id="Oval-3" data-name="Oval" cx="3.058" cy="3.058" r="3.058" transform="translate(414.592 210.347)" fill="#f4857f"/>
      <path id="Path-32" data-name="Path" d="M.235,0S.679,1.307,3.358.719c2.378-.536,3.528.993,2.47,1.738a4.234,4.234,0,0,1-4.417,0A5.841,5.841,0,0,1,0,.732" transform="translate(398.22 213.457)" fill="#1e2454"/>
      <path id="Path-33" data-name="Path" d="M7.317.146A8.794,8.794,0,0,1,0,.551" transform="translate(400.062 219.661)" fill="none" stroke="#1e2454" stroke-linecap="round" stroke-miterlimit="10" stroke-width="1"/>
      <path id="Path-34" data-name="Path" d="M10.875,3.153c1.045,2.613-.653,9.016-10.453,8.141v-.17A9.369,9.369,0,0,1,2.735,1.728C5.845-1.238,9.569-.14,10.875,3.153Z" transform="translate(429.863 204.856)" fill="#e1eeef"/>
      <path id="Path-35" data-name="Path" d="M0,11.3c9.761.875,11.459-5.514,10.453-8.141C8.807-1,3.306-1.667,0,4.932" transform="translate(430.325 204.853)" fill="none" stroke="#1e2454" stroke-linecap="round" stroke-miterlimit="10" stroke-width="1"/>
      <path id="Path-36" data-name="Path" d="M3.463.882a3.084,3.084,0,0,0-1.712.144C1.241,1.2.732,1.5,0,1.744A2.208,2.208,0,0,1,.483.751,2.443,2.443,0,0,1,1.424.1a1.9,1.9,0,0,1,1.2,0,1.307,1.307,0,0,1,.836.784Z" transform="translate(433.931 208.368)" fill="#1e2454"/>
      <ellipse id="Oval-4" data-name="Oval" cx="1.892" cy="1.683" rx="1.892" ry="1.683" transform="translate(391.962 207.982) rotate(-82.519)" fill="#1e2454"/>
      <ellipse id="Oval-5" data-name="Oval" cx="1.999" cy="1.777" rx="1.999" ry="1.777" transform="translate(412.274 208.029) rotate(-82.57)" fill="#1e2454"/>
      <path id="Path-37" data-name="Path" d="M41.813,19.235C37.2-.744,14.373-1.136,0,.707" transform="translate(439.811 238.374)" fill="none" stroke="#fff" stroke-linecap="round" stroke-miterlimit="10" stroke-width="1"/>
      <path id="Path-38" data-name="Path" d="M95.151.319C68.182-3.039,62,21.226,62,21.226s-25.088-.379-40.507-.34l.287.34L0,43.112H110.413S103.619,26.5,95.151.319Z" transform="translate(398.769 810.625)" fill="#1e2454"/>
      <path id="Path-39" data-name="Path" d="M79.207,0s-148.346,110.178-39,218c0,0,27-31.138,56.644-34.4,0,0-64.6-63.857,19.012-106.271" transform="translate(294.304 257.622)" fill="#c6dd85"/>
      <path id="Path-40" data-name="Path" d="M115.157,0C103.214,8.3,78.57,15.027,49.745,16.882,30.811,18.11,13.38,17.026,0,14.269c.483,2.2.928,4.312,1.307,6.311,13.276,2.613,30.354,3.672,48.882,2.47,30.053-1.934,55.573-9.147,66.9-17.941C116.424,3.515,115.81,1.777,115.157,0Z" transform="translate(383.768 347.978)" fill="#57aa91"/>
      <path id="Path-41" data-name="Path" d="M114.934,0c-12.805,7.4-35.816,13.25-62.38,14.961-20.293,1.307-38.847,0-52.554-3.28C.653,13.9,1.307,16.046,1.829,18.15c13.576,3.005,31.543,4.207,51.13,2.94,27.531-1.777,51.274-8,63.765-15.785C116.123,3.593,115.535,1.829,114.934,0Z" transform="translate(380.096 336.689)" fill="#57aa91"/>
      <path id="Path-42" data-name="Path" d="M115.9,0c-13.21,6.677-34.875,11.865-59.61,13.459C34.078,14.9,13.981,13.145,0,9.225c.771,2.247,1.5,4.443,2.208,6.612,13.89,3.58,33.229,5.122,54.475,3.75,25.532-1.646,47.785-7.108,60.851-14.1C116.986,3.7,116.437,1.869,115.9,0Z" transform="translate(375.51 324.981)" fill="#57aa91"/>
      <path id="Path-43" data-name="Path" d="M0,0C3.045,23.35,14.6,47.876,39.344,72.272" transform="translate(295.15 403.329)" fill="none" stroke="#1e2454" stroke-linecap="round" stroke-miterlimit="10" stroke-width="1"/>
      <path id="Path-44" data-name="Path" d="M23.806,95.975S-31.074,41.709,25.818,0" transform="translate(367.332 345.221)" fill="none" stroke="#fff" stroke-linecap="round" stroke-miterlimit="10" stroke-width="1"/>
    </g>
  </g>
</svg>
