<svg xmlns="http://www.w3.org/2000/svg" width="397.842" height="736.903" viewBox="0 0 397.842 736.903">
  <g id="character_builder___man_male_boy_guy_yoga_meditation_pose" data-name="character builder _ man, male, boy, guy, yoga, meditation, pose" transform="translate(1)">
    <g id="Group" transform="translate(-292.079 -112.685)">
      <path id="Path" d="M166.2,0S7.14,29.674.253,141.734,129.117,284.017,129.117,284.017l42.833,40.7V214.764s-73.317-30.249-32.8-66.9c51.038-46.178,154,33.751,129.726-81.758" transform="translate(300.28 368.01)" fill="#ef5b50"/>
      <path id="Path-2" data-name="Path" d="M107.709,489.569s3.724-184.684,28-273.538S152.135,17.849,124.7,0L46.3,14.857s-98.836,155.219-7.683,431.723L1.7,489.569Z" transform="translate(443.705 358.327)" fill="#ef5b50"/>
      <path id="Path-3" data-name="Path" d="M127.178,0l-78.4,14.857s-1.568,2.47-4.116,7.317L25.258,9.682A256.455,256.455,0,0,0,0,16.216c17.457,12.1,53.8,20.423,95.818,20.423a283.547,283.547,0,0,0,49.1-4.1C140.61,16.425,134.626,4.835,127.178,0Z" transform="translate(441.222 358.327)" fill="#1e2454"/>
      <path id="Path-4" data-name="Path" d="M107.6,270.48s1.869-92.773,11.6-178.425L35.855,8.7,13.184,0,0,12.962C1.019,73.069,11.277,144.8,38.521,227.425L1.594,270.48Z" transform="translate(443.809 577.416)" fill="#1e2454"/>
      <path id="Path-5" data-name="Path" d="M0,273.538S3.724,88.853,28,0" transform="translate(551.413 574.358)" fill="none" stroke="#1e2454" stroke-linecap="round" stroke-miterlimit="10" stroke-width="1"/>
      <path id="Path-6" data-name="Path" d="M106.676,20.5,36.861,0V.17L0,43.225H106.01S106.167,34.718,106.676,20.5Z" transform="translate(445.403 804.671)" fill="#ff781d"/>
      <path id="Path-7" data-name="Path" d="M0,80.726l1.307.314,42.833,40.7V11.76A133.28,133.28,0,0,1,22.723,0Z" transform="translate(428.077 571.013)" fill="#ff781d"/>
      <path id="Path-8" data-name="Path" d="M0,88.161A500.963,500.963,0,0,1,12.439,0" transform="translate(444.541 461.345)" fill="none" stroke="#fff" stroke-linecap="round" stroke-miterlimit="10" stroke-width="1"/>
      <path id="Path-9" data-name="Path" d="M45.007,66.9S-28.31,36.652,12.209,0" transform="translate(427.223 515.872)" fill="none" stroke="#fff" stroke-linecap="round" stroke-miterlimit="10" stroke-width="1"/>
      <path id="Path-10" data-name="Path" d="M166.2,0S7.14,29.674.253,141.734,129.117,284.017,129.117,284.017l42.833,40.7" transform="translate(300.28 368.01)" fill="none" stroke="#fff" stroke-linecap="round" stroke-miterlimit="10" stroke-width="1"/>
      <path id="Path-11" data-name="Path" d="M.653,109.982V0" transform="translate(471.576 582.773)" fill="none" stroke="#1e2454" stroke-linecap="round" stroke-miterlimit="10" stroke-width="1"/>
      <path id="Path-12" data-name="Path" d="M114.386,0,0,9.552a125.27,125.27,0,0,1,14.256,64.68C13.276,91.114,3.8,109.12,2.927,134.848A9.63,9.63,0,0,0,8.48,143.9c15.811,7.252,63.112,23.1,127.9-8.219a9.656,9.656,0,0,0,5.135-11.29C135.462,102.874,118.658,40.4,114.386,0Z" transform="translate(436.544 232.26)" fill="#f27520"/>
      <path id="Path-13" data-name="Path" d="M36.056,0S-22.313,81.98,9.479,111.6s118.737,8.7,123.833-9.147,7.1-60.59,2.391-62.093-19.731,33.1-19.731,33.1S66.11,81.484,72.643,63.217,87.016,27.531,87.016,27.531" transform="translate(358.766 234.534)" fill="#f4b49a"/>
      <path id="Path-14" data-name="Path" d="M0,9.147C31.8,38.756,118.737,17.849,123.833,0" transform="translate(368.245 336.989)" fill="none" stroke="#1e2454" stroke-linecap="round" stroke-miterlimit="10" stroke-width="1"/>
      <path id="Path-15" data-name="Path" d="M112.419,0s73.173,85.587,31.36,121.52C110.825,149.849,10.146,133.28,5.05,115.431s-7.1-60.59-2.391-62.093,19.718,33.1,19.718,33.1S88.9,92.094,82.366,73.827,59.5,30.38,59.5,30.38" transform="translate(490.817 221.558)" fill="#f4b49a"/>
      <path id="Path-16" data-name="Path" d="M138.729,6.089C105.775,34.418,5.1,17.849,0,0" transform="translate(495.867 336.989)" fill="none" stroke="#1e2454" stroke-linecap="round" stroke-miterlimit="10" stroke-width="1"/>
      <path id="Path-17" data-name="Path" d="M5.05,48.948C1.679,37.188-.333,14.452.046,0" transform="translate(490.817 288.042)" fill="none" stroke="#fff" stroke-linecap="round" stroke-miterlimit="10" stroke-width="1"/>
      <path id="Path-18" data-name="Path" d="M84.329,16.677s19.6,15.144,41.657-6.285c0,0,42.48-34.444,88.762,22.083a2.051,2.051,0,0,1-.248,2.862C201.079,46.874,98.036,126.11.937,42.5a2.731,2.731,0,0,1-.549-3.463C6.66,28.777,38.007-16.656,84.329,16.677Z" transform="translate(393.99 191.24)" fill="#ff781d"/>
      <path id="Path-19" data-name="Path" d="M.653.686h0a.562.562,0,0,0,0-.065Z" transform="translate(497.305 263.091)" fill="#1e2454"/>
      <path id="Path-20" data-name="Path" d="M5.932,20.293a22.213,22.213,0,0,1,5.41-10.336A22.514,22.514,0,0,0,5.37,0,22.357,22.357,0,0,0,0,10.283,22.54,22.54,0,0,1,5.958,20.293Z" transform="translate(491.725 232.561)" fill="#ffbd5c"/>
      <path id="Path-21" data-name="Path" d="M.656.621h0V.686a.118.118,0,0,1,0-.065Z" transform="translate(497.315 263.326)" fill="#1e2454"/>
      <path id="Path-22" data-name="Path" d="M11.2,17.287a22.462,22.462,0,0,1-1.045-6.128,21.952,21.952,0,0,1,.536-5.514A22.553,22.553,0,0,0,.546,0a22.409,22.409,0,0,0,.47,11.59,22.37,22.37,0,0,1,10.179,5.7Z" transform="translate(481.013 237.199)" fill="#ffbd5c"/>
      <path id="Path-23" data-name="Path" d="M1.12,11.695a22.383,22.383,0,0,1,5.7,9.238h0v-.065A22.422,22.422,0,0,1,6.5,10.009,22.54,22.54,0,0,0,.545,0,21.952,21.952,0,0,0,.01,5.514,22.462,22.462,0,0,0,1.12,11.695Z" transform="translate(491.088 242.792)" fill="#ff781d"/>
      <path id="Path-24" data-name="Path" d="M0,0A22.553,22.553,0,0,1,.51,11.642a22.422,22.422,0,0,0,10.14,5.645A22.409,22.409,0,0,0,10.166,5.7,22.213,22.213,0,0,1,0,0Z" transform="translate(503.746 273.198)" fill="#ffbd5c"/>
      <path id="Path-25" data-name="Path" d="M.655.693h0a.183.183,0,0,1,0-.078h0Z" transform="translate(497.341 263.254)" fill="#1e2454"/>
      <path id="Path-26" data-name="Path" d="M5.7,9.238A22.383,22.383,0,0,1,0,0H0A.118.118,0,0,0,0,.065a22.422,22.422,0,0,1,.3,10.858,22.292,22.292,0,0,0,2.5,5.684,21.756,21.756,0,0,0,3.476,4.325A22.553,22.553,0,0,0,5.767,9.29Z" transform="translate(498.044 263.96)" fill="#ff781d"/>
      <path id="Path-27" data-name="Path" d="M.693.653Z" transform="translate(497.213 263.176)" fill="#1e2454"/>
      <path id="Path-28" data-name="Path" d="M17.823,10.5A22.449,22.449,0,0,1,13.9,5.722,22.841,22.841,0,0,1,11.59.665,22.475,22.475,0,0,0,0,.861a22.213,22.213,0,0,0,6.207,9.787,22.279,22.279,0,0,1,5.488-.836A21.913,21.913,0,0,1,17.823,10.5Z" transform="translate(470.478 248.124)" fill="#ffbd5c"/>
      <path id="Path-29" data-name="Path" d="M6.246,9.865A22.3,22.3,0,0,1,15.8,15.014h.078a.183.183,0,0,1,0-.078,22.213,22.213,0,0,1-5.7-9.238A22.37,22.37,0,0,0,0,0,22.841,22.841,0,0,0,2.313,5.057,22.449,22.449,0,0,0,6.246,9.865Z" transform="translate(482.055 248.763)" fill="#ff781d"/>
      <path id="Path-30" data-name="Path" d="M5.7,9.238A22.383,22.383,0,0,0,0,0,22.213,22.213,0,0,0,5.7,9.238Z" transform="translate(492.208 254.486)" fill="#ef5b50"/>
      <path id="Path-31" data-name="Path" d="M11.669,0A22.37,22.37,0,0,1,6.181.836,21.952,21.952,0,0,1,0,.144,22.5,22.5,0,0,1,3.92,4.926a22.788,22.788,0,0,1,2.3,5.057,22.514,22.514,0,0,0,11.6-.2A22.331,22.331,0,0,0,11.669,0Z" transform="translate(507.64 268.912)" fill="#ffbd5c"/>
      <path id="Path-32" data-name="Path" d="M.621.653Z" transform="translate(497.389 263.215)" fill="#1e2454"/>
      <path id="Path-33" data-name="Path" d="M9.621,5.148A22.3,22.3,0,0,1,.07,0H0A.183.183,0,0,0,0,.078,22.527,22.527,0,0,1,5.7,9.317a22.213,22.213,0,0,0,10.166,5.7,22.788,22.788,0,0,0-2.3-5.057A22.5,22.5,0,0,0,9.621,5.148Z" transform="translate(498.019 263.907)" fill="#ff781d"/>
      <path id="Path-34" data-name="Path" d="M0,0A22.383,22.383,0,0,0,5.7,9.238,22.527,22.527,0,0,0,0,0Z" transform="translate(498.049 263.947)" fill="#ef5b50"/>
      <path id="Path-35" data-name="Path" d="M20.279,5.383a22.553,22.553,0,0,1-5.815-2.156A21.8,21.8,0,0,1,9.944,0,22.4,22.4,0,0,0,0,5.971a22.449,22.449,0,0,0,10.27,5.383A22.4,22.4,0,0,1,20.279,5.383Z" transform="translate(466.702 258.772)" fill="#ffbd5c"/>
      <path id="Path-36" data-name="Path" d="M10.283,6.164a22.488,22.488,0,0,1,10.858-.314h.065A22.37,22.37,0,0,1,11.655.7,21.913,21.913,0,0,0,5.488.01,22.279,22.279,0,0,0,0,.846,21.8,21.8,0,0,0,4.521,4.074,22.553,22.553,0,0,0,10.283,6.164Z" transform="translate(476.698 257.991)" fill="#ff781d"/>
      <path id="Path-37" data-name="Path" d="M9.552,5.148A22.3,22.3,0,0,0,0,0,22.37,22.37,0,0,0,9.552,5.148Z" transform="translate(488.288 258.629)" fill="#ef5b50"/>
      <path id="Path-38" data-name="Path" d="M0,5.971A22.213,22.213,0,0,1,5.815,8.127a21.874,21.874,0,0,1,4.534,3.227,22.4,22.4,0,0,0,9.944-5.971A22.514,22.514,0,0,0,10.022,0,22.54,22.54,0,0,1,0,5.971Z" transform="translate(508.96 257.557)" fill="#ffbd5c"/>
      <path id="Path-39" data-name="Path" d="M10.924,0A22.435,22.435,0,0,1,.078.314H0A22.37,22.37,0,0,1,9.552,5.462a21.952,21.952,0,0,0,6.181.693,22.37,22.37,0,0,0,5.488-.836,21.874,21.874,0,0,0-4.534-3.227A22.213,22.213,0,0,0,10.924,0Z" transform="translate(498.036 263.529)" fill="#ff781d"/>
      <path id="Path-40" data-name="Path" d="M9.552,5.148A22.37,22.37,0,0,0,0,0,22.3,22.3,0,0,0,9.552,5.148Z" transform="translate(498.088 263.907)" fill="#ef5b50"/>
      <path id="Path-41" data-name="Path" d="M17.274,0a22.462,22.462,0,0,1-6.115,1.045A22.684,22.684,0,0,1,5.632.523,22.3,22.3,0,0,0,0,10.649a22.37,22.37,0,0,0,11.577-.47A21.926,21.926,0,0,1,13.6,4.952,22.475,22.475,0,0,1,17.274,0Z" transform="translate(471.341 269.605)" fill="#ffbd5c"/>
      <path id="Path-42" data-name="Path" d="M11.642,5.658A22.383,22.383,0,0,1,20.867,0h0A22.422,22.422,0,0,1,10.009.314,22.4,22.4,0,0,0,0,6.285a22.684,22.684,0,0,0,5.527.523,22.462,22.462,0,0,0,6.115-1.15Z" transform="translate(476.973 263.947)" fill="#ff781d"/>
      <path id="Path-43" data-name="Path" d="M0,.832A22.422,22.422,0,0,0,10.858.518,22.488,22.488,0,0,0,0,.832Z" transform="translate(486.982 263.324)" fill="#ef5b50"/>
      <path id="Path-44" data-name="Path" d="M0,11.2a22.422,22.422,0,0,1,11.655-.523A22.3,22.3,0,0,0,17.287.546a22.422,22.422,0,0,0-11.59.47A22.37,22.37,0,0,1,0,11.2Z" transform="translate(507.326 246.885)" fill="#ffbd5c"/>
      <path id="Path-45" data-name="Path" d="M9.238,1.121A22.383,22.383,0,0,1,0,6.818H.078A22.37,22.37,0,0,1,10.924,6.5,22.54,22.54,0,0,0,20.946.533,22.422,22.422,0,0,0,9.29,1.055Z" transform="translate(498.088 256.959)" fill="#ff781d"/>
      <path id="Path-46" data-name="Path" d="M10.845.52A22.37,22.37,0,0,0,0,.834,22.435,22.435,0,0,0,10.845.52Z" transform="translate(498.114 263.009)" fill="#ef5b50"/>
      <path id="Path-47" data-name="Path" d="M.529,0a22.331,22.331,0,0,0,.3,10.858A22.422,22.422,0,0,0,.529,0Z" transform="translate(497.455 263.947)" fill="#ef5b50"/>
      <path id="Path-48" data-name="Path" d="M14.935,0A22.213,22.213,0,0,1,5.7,5.7a22.475,22.475,0,0,0-3.672,5A21.926,21.926,0,0,0,0,15.928,22.475,22.475,0,0,0,9.839,9.656,22.3,22.3,0,0,1,14.987.1h0Z" transform="translate(482.905 263.947)" fill="#ff781d"/>
      <path id="Path-49" data-name="Path" d="M5.148,0A22.3,22.3,0,0,0,0,9.552,22.213,22.213,0,0,0,5.148,0Z" transform="translate(492.757 263.947)" fill="#ef5b50"/>
      <path id="Path-50" data-name="Path" d="M9.238,0A22.383,22.383,0,0,0,0,5.7,22.213,22.213,0,0,0,9.238,0Z" transform="translate(488.602 263.947)" fill="#ef5b50"/>
      <path id="Path-51" data-name="Path" d="M.131,17.862A22.54,22.54,0,0,1,9.957,11.59,22.213,22.213,0,0,0,9.761,0,22.357,22.357,0,0,0,0,6.207,22.592,22.592,0,0,1,.157,17.862Z" transform="translate(503.067 236.311)" fill="#ffbd5c"/>
      <path id="Path-52" data-name="Path" d="M0,10.283A22.488,22.488,0,0,1,.314,21.142a.562.562,0,0,1,0,.065h0A22.213,22.213,0,0,1,5.54,11.655,22.592,22.592,0,0,0,5.383,0,22.213,22.213,0,0,0,0,10.336Z" transform="translate(497.657 242.57)" fill="#ff781d"/>
      <path id="Path-53" data-name="Path" d="M.52,0A22.422,22.422,0,0,0,.834,10.858,22.488,22.488,0,0,0,.52,0Z" transform="translate(497.137 252.853)" fill="#ef5b50"/>
      <path id="Path-54" data-name="Path" d="M5.227,6.324A22.475,22.475,0,0,1,0,15.876H.065a22.331,22.331,0,0,1,9.238-5.7A22.37,22.37,0,0,0,15,0,22.54,22.54,0,0,0,5.174,6.272Z" transform="translate(497.971 247.849)" fill="#ff781d"/>
      <path id="Path-55" data-name="Path" d="M0,9.552A22.475,22.475,0,0,0,5.227,0,22.213,22.213,0,0,0,0,9.552Z" transform="translate(498.036 254.173)" fill="#ef5b50"/>
      <path id="Path-56" data-name="Path" d="M0,5.7A22.383,22.383,0,0,0,9.238,0,22.331,22.331,0,0,0,0,5.7Z" transform="translate(498.088 258.08)" fill="#ef5b50"/>
      <path id="Path-57" data-name="Path" d="M30.262,4.915c-3.5-5.227-11.015-6.363-17.5-3.031a18.986,18.986,0,0,1-2.613,1.085A14.935,14.935,0,1,0,29.269,21.314c.562-1.869,1.137-3.724,1.829-5.527a11.76,11.76,0,0,0-.836-10.871Z" transform="translate(512.997 112.685)" fill="#1e2454"/>
      <circle id="Oval" cx="12.374" cy="12.374" r="12.374" transform="translate(503.328 127.557)" fill="#ff781d"/>
      <path id="Path-58" data-name="Path" d="M0,.653H395.842" transform="translate(292.079 847.935)" fill="none" stroke="#1e2454" stroke-linecap="round" stroke-miterlimit="10" stroke-width="2"/>
      <path id="Path-59" data-name="Path" d="M.675,2.2C-.827,4.47-.5,10.82,8.855,11.931l1.751-3.267C9.665-.731,3.341-1.8.675,2.2Z" transform="translate(471.658 167.841)" fill="#f4b49a"/>
      <path id="Path-60" data-name="Path" d="M2.36,9.529A5.762,5.762,0,0,1,.662,2.2c2.378-3.58,7.683-3.1,9.46,3.75" transform="translate(471.672 167.838)" fill="none" stroke="#1e2454" stroke-linecap="round" stroke-miterlimit="10" stroke-width="1"/>
      <path id="Path-61" data-name="Path" d="M3.058,0,.444.836A33.294,33.294,0,0,1,0,24.043l4.6-4.417S6.1,3.789,3.058,0Z" transform="translate(472.059 157.845)" fill="#1e2454"/>
      <path id="Path-62" data-name="Path" d="M0,.6A1.307,1.307,0,0,1,.941.014a1.764,1.764,0,0,1,1.15.248,2.352,2.352,0,0,1,.758.81,2.025,2.025,0,0,1,.235,1.045c-.64-.379-1.058-.758-1.5-1.019A3.136,3.136,0,0,0,0,.6Z" transform="translate(475.235 171.264)" fill="#1e2454"/>
      <path id="Path-63" data-name="Path" d="M.774,36.744A61.126,61.126,0,0,0,.159,18.62S-2.924,0,18.035,0c34.783-.078,30.654,28.917,27.78,39.2a.47.47,0,0,1,0,.131c-.144.483-.274.941-.405,1.307s-.091.274-.078.17A25.924,25.924,0,0,1,18.231,59.1C4.249,58.2-1.147,48.268.774,36.744Z" transform="translate(475.702 142.427)" fill="#f4b49a"/>
      <path id="Path-64" data-name="Path" d="M4.546,36.634S2.626,27.043,9.2,23.946s38.769-7.291,37.723,16.059l1.738,9a25.924,25.924,0,0,1,6.22-1.542c2.3-.078,8.715-11.486,7.84-21.077a28.877,28.877,0,0,0-12.5-20.907A32.9,32.9,0,0,0,29.308.113C16.542.988-5.515,6.254,1.267,32.779" transform="translate(471.315 125.915)" fill="#1e2454"/>
      <path id="Path-65" data-name="Path" d="M56.2,29.93C50.226,14.747,54.041,8.789,54.041,8.789S49.808-4.383,50.03,1.523c.235,6.416-3.7,23.6-11.616,20.828-4.6-1.62-5.135-5.227-15.536-5.1-7.317.078-7.056,5.4-11.054,4.142s-3.45-9.016-3.45-9.016S-4.471,27.069,1.657,39.142a8.519,8.519,0,0,1,.889,4.207v.392c0,5.71,3.254,10.806,8.376,14.243a5.893,5.893,0,0,1,1.7,1.751,18.829,18.829,0,0,0,21.05,8.337,18.463,18.463,0,0,0,11.067-8.689,4.665,4.665,0,0,1,2-1.829A15.981,15.981,0,0,0,54.995,46.63a17.078,17.078,0,0,0,.34-5.305,7.3,7.3,0,0,1,.64-3.685A9.761,9.761,0,0,0,56.2,29.93Z" transform="translate(468.234 162.79)" fill="#1e2454"/>
      <path id="Path-66" data-name="Path" d="M0,.177A10.349,10.349,0,0,1,7.775,1.824" transform="translate(501.198 160.987)" fill="none" stroke="#1e2454" stroke-linecap="round" stroke-miterlimit="10" stroke-width="2"/>
      <path id="Path-67" data-name="Path" d="M3.22.224A9.891,9.891,0,0,1,4.6,6.117,16.438,16.438,0,0,1,3.86,9.109a23.677,23.677,0,0,1-1.1,2.849,7.539,7.539,0,0,1-.8,1.307,3.606,3.606,0,0,0-.614,1.085c-.183.64.274,1.307.928,1.855A4.965,4.965,0,0,0,4.6,17.328,3.5,3.5,0,0,0,7.218,16.9H7.31A3.371,3.371,0,0,1,4.487,18.2a4.965,4.965,0,0,1-3.136-1.071A4.011,4.011,0,0,1,.24,15.825a2.535,2.535,0,0,1-.091-1.934,3.763,3.763,0,0,1,.993-1.4,9.356,9.356,0,0,0,.98-1.045A6.363,6.363,0,0,0,3.429,8.834a10.793,10.793,0,0,0,.065-2.9A56.448,56.448,0,0,0,3.063.106a.1.1,0,0,1,0-.078.126.126,0,0,1,.157.2Z" transform="translate(487.786 163.293)" fill="#1e2454"/>
      <path id="Path-68" data-name="Path" d="M6.533.442A8.506,8.506,0,0,0,0,1.2" transform="translate(481.376 160.723)" fill="none" stroke="#1e2454" stroke-linecap="round" stroke-miterlimit="10" stroke-width="2"/>
      <circle id="Oval-2" data-name="Oval" cx="2.888" cy="2.888" r="2.888" transform="translate(479.364 174.923)" fill="#f4857f"/>
      <circle id="Oval-3" data-name="Oval" cx="3.058" cy="3.058" r="3.058" transform="translate(505.34 175.172)" fill="#f4857f"/>
      <path id="Path-69" data-name="Path" d="M.235,0S.679,1.307,3.358.732c2.378-.549,3.528.98,2.47,1.725a4.207,4.207,0,0,1-4.417,0A5.658,5.658,0,0,1,0,.732" transform="translate(488.968 178.269)" fill="#1e2454"/>
      <path id="Path-70" data-name="Path" d="M7.317.152A8.833,8.833,0,0,1,0,.544" transform="translate(490.81 184.48)" fill="none" stroke="#fff" stroke-linecap="round" stroke-miterlimit="10" stroke-width="1"/>
      <path id="Path-71" data-name="Path" d="M10.879,3.153c1.045,2.613-.653,9.029-10.453,8.141v-.157A9.369,9.369,0,0,1,2.738,1.728C5.848-1.238,9.572-.14,10.879,3.153Z" transform="translate(520.608 169.667)" fill="#f4b49a"/>
      <path id="Path-72" data-name="Path" d="M0,11.29c9.761.889,11.459-5.5,10.453-8.141C8.807-1.006,3.306-1.66,0,4.939" transform="translate(521.073 169.671)" fill="none" stroke="#1e2454" stroke-linecap="round" stroke-miterlimit="10" stroke-width="1"/>
      <path id="Path-73" data-name="Path" d="M3.463.879a3.214,3.214,0,0,0-1.712.144c-.51.17-1.019.483-1.751.732A2.091,2.091,0,0,1,.483.761,2.2,2.2,0,0,1,1.424.108a1.725,1.725,0,0,1,1.2,0,1.307,1.307,0,0,1,.836.771Z" transform="translate(524.679 173.182)" fill="#1e2454"/>
      <ellipse id="Oval-4" data-name="Oval" cx="1.895" cy="1.686" rx="1.895" ry="1.686" transform="translate(482.778 172.028) rotate(-82.57)" fill="#1e2454"/>
      <ellipse id="Oval-5" data-name="Oval" cx="1.996" cy="1.774" rx="1.996" ry="1.774" transform="translate(503.105 173.764) rotate(-82.519)" fill="#1e2454"/>
    </g>
  </g>
</svg>
