<svg xmlns="http://www.w3.org/2000/svg" width="56.294" height="56.294" viewBox="0 0 56.294 56.294">
  <path id="Path_6" data-name="Path 6" d="M44.991,33.187a11.78,11.78,0,0,0-9.042,4.231L23.8,31.356a11.972,11.972,0,0,0,0-5.418l12.151-6.062a11.935,11.935,0,1,0-2.437-4.87L21.337,21.079a11.8,11.8,0,1,0,0,15.137l12.173,6.072a11.8,11.8,0,1,0,11.479-9.1Zm0-27.239A6.356,6.356,0,1,1,38.635,12.3,6.364,6.364,0,0,1,44.991,5.948ZM12.3,35a6.356,6.356,0,1,1,5.688-9.19,6.348,6.348,0,0,1-.008,5.684A6.315,6.315,0,0,1,12.3,35ZM44.991,51.346a6.356,6.356,0,1,1,6.356-6.356A6.364,6.364,0,0,1,44.991,51.346Z" transform="translate(-0.5 -0.5)" fill="#00ab55"/>
</svg>
